<svg id="svg" version="1.1" xmlns="http://www.w3.org/2000/svg" xmlns:xlink="http://www.w3.org/1999/xlink" width="42" height="42" viewBox="0, 0, 400,400"><g id="svgg"><path id="path0" d="M0.164 67.100 C 0.315 68.585,0.610 69.860,0.819 69.933 C 1.029 70.007,1.200 70.412,1.200 70.833 C 1.200 71.255,1.380 71.600,1.600 71.600 C 1.820 71.600,2.000 72.050,2.000 72.600 C 2.000 73.150,2.180 73.600,2.400 73.600 C 2.620 73.600,2.800 73.960,2.800 74.400 C 2.800 74.840,2.980 75.200,3.200 75.200 C 3.420 75.200,3.600 75.740,3.600 76.400 C 3.600 77.060,3.780 77.600,4.000 77.600 C 4.220 77.600,4.400 77.960,4.400 78.400 C 4.400 78.840,4.580 79.200,4.800 79.200 C 5.020 79.200,5.200 79.740,5.200 80.400 C 5.200 81.060,5.380 81.600,5.600 81.600 C 5.820 81.600,6.000 81.960,6.000 82.400 C 6.000 82.840,6.180 83.200,6.400 83.200 C 6.620 83.200,6.800 83.650,6.800 84.200 C 6.800 84.750,6.980 85.200,7.200 85.200 C 7.420 85.200,7.600 85.650,7.600 86.200 C 7.600 86.750,7.735 87.200,7.900 87.200 C 8.065 87.200,8.553 88.370,8.985 89.800 C 9.417 91.230,9.912 92.400,10.085 92.400 C 10.258 92.400,10.400 92.839,10.400 93.376 C 10.400 93.913,10.580 94.464,10.800 94.600 C 11.020 94.736,11.200 95.197,11.200 95.624 C 11.200 96.051,11.380 96.400,11.600 96.400 C 11.820 96.400,12.000 96.839,12.000 97.376 C 12.000 97.913,12.180 98.464,12.400 98.600 C 12.620 98.736,12.800 99.197,12.800 99.624 C 12.800 100.051,12.980 100.400,13.200 100.400 C 13.420 100.400,13.600 100.839,13.600 101.376 C 13.600 101.913,13.780 102.464,14.000 102.600 C 14.220 102.736,14.400 103.197,14.400 103.624 C 14.400 104.051,14.580 104.400,14.800 104.400 C 15.020 104.400,15.200 104.850,15.200 105.400 C 15.200 105.950,15.380 106.400,15.600 106.400 C 15.820 106.400,16.000 106.760,16.000 107.200 C 16.000 107.640,16.180 108.000,16.400 108.000 C 16.620 108.000,16.800 108.439,16.800 108.976 C 16.800 109.513,16.980 110.064,17.200 110.200 C 17.420 110.336,17.600 110.797,17.600 111.224 C 17.600 111.651,17.780 112.000,18.000 112.000 C 18.220 112.000,18.400 112.349,18.400 112.776 C 18.400 113.203,18.580 113.664,18.800 113.800 C 19.020 113.936,19.200 114.487,19.200 115.024 C 19.200 115.561,19.380 116.000,19.600 116.000 C 19.820 116.000,20.000 116.360,20.000 116.800 C 20.000 117.240,20.180 117.600,20.400 117.600 C 20.620 117.600,20.800 118.140,20.800 118.800 C 20.800 119.460,20.980 120.000,21.200 120.000 C 21.420 120.000,21.600 120.360,21.600 120.800 C 21.600 121.240,21.780 121.600,22.000 121.600 C 22.220 121.600,22.400 122.050,22.400 122.600 C 22.400 123.150,22.580 123.600,22.800 123.600 C 23.020 123.600,23.200 123.960,23.200 124.400 C 23.200 124.840,23.380 125.200,23.600 125.200 C 23.820 125.200,24.000 125.740,24.000 126.400 C 24.000 127.060,24.143 127.600,24.317 127.600 C 24.491 127.600,24.861 128.447,25.138 129.483 C 25.415 130.519,25.920 132.004,26.262 132.783 C 26.603 133.562,27.064 134.650,27.287 135.200 C 27.511 135.750,27.852 136.513,28.047 136.895 C 28.241 137.277,28.400 137.862,28.400 138.195 C 28.400 138.528,28.580 138.800,28.800 138.800 C 29.020 138.800,29.200 139.250,29.200 139.800 C 29.200 140.350,29.380 140.800,29.600 140.800 C 29.820 140.800,30.000 141.160,30.000 141.600 C 30.000 142.040,30.180 142.400,30.400 142.400 C 30.620 142.400,30.800 142.940,30.800 143.600 C 30.800 144.260,30.980 144.800,31.200 144.800 C 31.420 144.800,31.600 145.160,31.600 145.600 C 31.600 146.040,31.780 146.400,32.000 146.400 C 32.220 146.400,32.400 146.940,32.400 147.600 C 32.400 148.260,32.580 148.800,32.800 148.800 C 33.020 148.800,33.200 149.160,33.200 149.600 C 33.200 150.040,33.380 150.400,33.600 150.400 C 33.820 150.400,34.000 150.839,34.000 151.376 C 34.000 151.913,34.180 152.464,34.400 152.600 C 34.620 152.736,34.800 153.197,34.800 153.624 C 34.800 154.051,34.980 154.400,35.200 154.400 C 35.420 154.400,35.600 154.850,35.600 155.400 C 35.600 155.950,35.780 156.400,36.000 156.400 C 36.220 156.400,36.400 156.760,36.400 157.200 C 36.400 157.640,36.580 158.000,36.800 158.000 C 37.020 158.000,37.200 158.439,37.200 158.976 C 37.200 159.513,37.380 160.064,37.600 160.200 C 37.820 160.336,38.000 160.797,38.000 161.224 C 38.000 161.651,38.180 162.000,38.400 162.000 C 38.620 162.000,38.800 162.349,38.800 162.776 C 38.800 163.203,38.980 163.664,39.200 163.800 C 39.420 163.936,39.600 164.487,39.600 165.024 C 39.600 165.561,39.780 166.000,40.000 166.000 C 40.220 166.000,40.400 166.360,40.400 166.800 C 40.400 167.240,40.580 167.600,40.800 167.600 C 41.020 167.600,41.200 168.129,41.200 168.776 C 41.200 169.423,41.347 170.043,41.526 170.154 C 41.705 170.265,42.200 171.446,42.626 172.778 C 43.052 174.110,43.502 175.200,43.628 175.200 C 43.753 175.200,44.100 176.100,44.400 177.200 C 44.700 178.300,45.060 179.200,45.200 179.200 C 45.340 179.200,45.700 180.100,46.000 181.200 C 46.300 182.300,46.692 183.200,46.872 183.200 C 47.053 183.200,47.200 183.549,47.200 183.976 C 47.200 184.403,47.380 184.864,47.600 185.000 C 47.820 185.136,48.000 185.687,48.000 186.224 C 48.000 186.761,48.180 187.200,48.400 187.200 C 48.620 187.200,48.800 187.560,48.800 188.000 C 48.800 188.440,48.980 188.800,49.200 188.800 C 49.420 188.800,49.600 189.250,49.600 189.800 C 49.600 190.350,49.780 190.800,50.000 190.800 C 50.220 190.800,50.400 191.160,50.400 191.600 C 50.400 192.040,50.580 192.400,50.800 192.400 C 51.020 192.400,51.200 192.940,51.200 193.600 C 51.200 194.260,51.380 194.800,51.600 194.800 C 51.820 194.800,52.000 195.160,52.000 195.600 C 52.000 196.040,52.180 196.400,52.400 196.400 C 52.620 196.400,52.800 196.940,52.800 197.600 C 52.800 198.260,52.980 198.800,53.200 198.800 C 53.420 198.800,53.600 199.160,53.600 199.600 C 53.600 200.040,53.780 200.400,54.000 200.400 C 54.220 200.400,54.400 200.839,54.400 201.376 C 54.400 201.913,54.580 202.464,54.800 202.600 C 55.020 202.736,55.200 203.197,55.200 203.624 C 55.200 204.051,55.380 204.400,55.600 204.400 C 55.820 204.400,56.000 204.850,56.000 205.400 C 56.000 205.950,56.180 206.400,56.400 206.400 C 56.620 206.400,56.800 206.760,56.800 207.200 C 56.800 207.640,56.980 208.000,57.200 208.000 C 57.420 208.000,57.600 208.540,57.600 209.200 C 57.600 209.860,57.760 210.400,57.955 210.400 C 58.151 210.400,58.433 211.052,58.583 211.849 C 58.732 212.646,59.001 213.591,59.181 213.949 C 59.360 214.307,59.708 215.095,59.953 215.700 C 60.199 216.305,60.601 217.295,60.847 217.900 C 61.092 218.505,61.452 219.313,61.647 219.695 C 61.841 220.077,62.000 220.662,62.000 220.995 C 62.000 221.328,62.180 221.600,62.400 221.600 C 62.620 221.600,62.800 222.050,62.800 222.600 C 62.800 223.150,62.980 223.600,63.200 223.600 C 63.420 223.600,63.600 223.960,63.600 224.400 C 63.600 224.840,63.780 225.200,64.000 225.200 C 64.220 225.200,64.400 225.740,64.400 226.400 C 64.400 227.060,64.580 227.600,64.800 227.600 C 65.020 227.600,65.200 227.960,65.200 228.400 C 65.200 228.840,65.380 229.200,65.600 229.200 C 65.820 229.200,66.000 229.740,66.000 230.400 C 66.000 231.060,66.180 231.600,66.400 231.600 C 66.620 231.600,66.800 231.960,66.800 232.400 C 66.800 232.840,66.980 233.200,67.200 233.200 C 67.420 233.200,67.600 233.740,67.600 234.400 C 67.600 235.060,67.780 235.600,68.000 235.600 C 68.220 235.600,68.400 235.960,68.400 236.400 C 68.400 236.840,68.580 237.200,68.800 237.200 C 69.020 237.200,69.200 237.555,69.200 237.988 C 69.200 238.421,69.560 239.417,70.000 240.200 C 70.440 240.983,70.800 241.979,70.800 242.412 C 70.800 242.845,70.980 243.200,71.200 243.200 C 71.420 243.200,71.600 243.560,71.600 244.000 C 71.600 244.440,71.780 244.800,72.000 244.800 C 72.220 244.800,72.400 245.340,72.400 246.000 C 72.400 246.660,72.580 247.200,72.800 247.200 C 73.020 247.200,73.200 247.560,73.200 248.000 C 73.200 248.440,73.380 248.800,73.600 248.800 C 73.820 248.800,74.000 249.162,74.000 249.605 C 74.000 250.048,74.164 250.723,74.365 251.105 C 74.565 251.487,75.032 252.700,75.403 253.800 C 75.773 254.900,76.419 256.563,76.838 257.496 C 77.257 258.428,77.600 259.463,77.600 259.796 C 77.600 260.128,77.780 260.400,78.000 260.400 C 78.220 260.400,78.400 260.760,78.400 261.200 C 78.400 261.640,78.580 262.000,78.800 262.000 C 79.020 262.000,79.200 262.540,79.200 263.200 C 79.200 263.860,79.380 264.400,79.600 264.400 C 79.820 264.400,80.000 264.760,80.000 265.200 C 80.000 265.640,80.180 266.000,80.400 266.000 C 80.620 266.000,80.800 266.540,80.800 267.200 C 80.800 267.860,80.980 268.400,81.200 268.400 C 81.420 268.400,81.600 268.760,81.600 269.200 C 81.600 269.640,81.780 270.000,82.000 270.000 C 82.220 270.000,82.400 270.439,82.400 270.976 C 82.400 271.513,82.580 272.064,82.800 272.200 C 83.020 272.336,83.200 272.797,83.200 273.224 C 83.200 273.651,83.380 274.000,83.600 274.000 C 83.820 274.000,84.000 274.450,84.000 275.000 C 84.000 275.550,84.180 276.000,84.400 276.000 C 84.620 276.000,84.800 276.349,84.800 276.776 C 84.800 277.203,84.980 277.664,85.200 277.800 C 85.420 277.936,85.600 278.487,85.600 279.024 C 85.600 279.561,85.780 280.000,86.000 280.000 C 86.220 280.000,86.400 280.349,86.400 280.776 C 86.400 281.203,86.580 281.664,86.800 281.800 C 87.020 281.936,87.200 282.487,87.200 283.024 C 87.200 283.561,87.380 284.000,87.600 284.000 C 87.820 284.000,88.000 284.349,88.000 284.776 C 88.000 285.203,88.180 285.664,88.400 285.800 C 88.620 285.936,88.800 286.487,88.800 287.024 C 88.800 287.561,88.980 288.000,89.200 288.000 C 89.420 288.000,89.600 288.450,89.600 289.000 C 89.600 289.550,89.780 290.000,90.000 290.000 C 90.220 290.000,90.400 290.360,90.400 290.800 C 90.400 291.240,90.580 291.600,90.800 291.600 C 91.020 291.600,91.200 292.140,91.200 292.800 C 91.200 293.460,91.360 294.000,91.555 294.000 C 91.751 294.000,92.037 294.672,92.191 295.493 C 92.345 296.314,92.790 297.645,93.179 298.451 C 93.568 299.257,94.132 300.745,94.431 301.758 C 94.730 302.771,95.115 303.600,95.287 303.600 C 95.459 303.600,95.600 303.872,95.600 304.205 C 95.600 304.538,95.808 305.213,96.062 305.705 C 97.058 307.631,97.200 308.017,97.200 308.795 C 97.200 309.238,97.380 309.600,97.600 309.600 C 97.820 309.600,98.000 309.960,98.000 310.400 C 98.000 310.840,98.180 311.200,98.400 311.200 C 98.620 311.200,98.800 311.740,98.800 312.400 C 98.800 313.060,98.980 313.600,99.200 313.600 C 99.420 313.600,99.600 313.960,99.600 314.400 C 99.600 314.840,99.780 315.200,100.000 315.200 C 100.220 315.200,100.400 315.740,100.400 316.400 C 100.400 317.060,100.580 317.600,100.800 317.600 C 101.020 317.600,101.200 317.960,101.200 318.400 C 101.200 318.840,101.380 319.200,101.600 319.200 C 101.820 319.200,102.000 319.639,102.000 320.176 C 102.000 320.713,102.180 321.264,102.400 321.400 C 102.620 321.536,102.800 321.997,102.800 322.424 C 102.800 322.851,102.980 323.200,103.200 323.200 C 103.420 323.200,103.600 323.650,103.600 324.200 C 103.600 324.750,103.780 325.200,104.000 325.200 C 104.220 325.200,104.400 325.560,104.400 326.000 C 104.400 326.440,104.580 326.800,104.800 326.800 C 105.020 326.800,105.200 327.340,105.200 328.000 C 105.200 328.660,105.380 329.200,105.600 329.200 C 105.820 329.200,106.000 329.560,106.000 330.000 C 106.000 330.440,106.180 330.800,106.400 330.800 C 106.620 330.800,106.800 331.340,106.800 332.000 C 106.800 332.660,106.980 333.200,107.200 333.200 C 107.420 333.200,107.600 333.483,107.600 333.829 C 107.600 335.661,106.109 335.600,151.200 335.600 C 196.291 335.600,194.800 335.661,194.800 333.829 C 194.800 333.483,194.980 333.200,195.200 333.200 C 195.420 333.200,195.600 332.660,195.600 332.000 C 195.600 331.340,195.780 330.800,196.000 330.800 C 196.220 330.800,196.400 330.440,196.400 330.000 C 196.400 329.560,196.580 329.200,196.800 329.200 C 197.020 329.200,197.200 328.660,197.200 328.000 C 197.200 327.340,197.380 326.800,197.600 326.800 C 197.820 326.800,198.000 326.440,198.000 326.000 C 198.000 325.560,198.180 325.200,198.400 325.200 C 198.620 325.200,198.800 324.750,198.800 324.200 C 198.800 323.650,198.980 323.200,199.200 323.200 C 199.420 323.200,199.600 322.851,199.600 322.424 C 199.600 321.997,199.780 321.536,200.000 321.400 C 200.220 321.264,200.400 320.713,200.400 320.176 C 200.400 319.639,200.580 319.200,200.800 319.200 C 201.020 319.200,201.200 318.840,201.200 318.400 C 201.200 317.960,201.380 317.600,201.600 317.600 C 201.820 317.600,202.000 317.060,202.000 316.400 C 202.000 315.740,202.180 315.200,202.400 315.200 C 202.620 315.200,202.800 314.840,202.800 314.400 C 202.800 313.960,202.980 313.600,203.200 313.600 C 203.420 313.600,203.600 313.060,203.600 312.400 C 203.600 311.740,203.780 311.200,204.000 311.200 C 204.220 311.200,204.400 310.840,204.400 310.400 C 204.400 309.960,204.580 309.600,204.800 309.600 C 205.020 309.600,205.200 309.274,205.200 308.875 C 205.200 308.476,205.560 307.405,206.000 306.494 C 206.440 305.584,206.800 304.671,206.800 304.465 C 206.800 304.260,207.069 303.576,207.398 302.946 C 207.726 302.316,207.996 301.406,207.998 300.924 C 207.999 300.442,208.180 299.936,208.400 299.800 C 208.620 299.664,208.800 299.203,208.800 298.776 C 208.800 298.349,208.980 298.000,209.200 298.000 C 209.420 298.000,209.600 297.460,209.600 296.800 C 209.600 296.140,209.780 295.600,210.000 295.600 C 210.220 295.600,210.400 295.240,210.400 294.800 C 210.400 294.360,210.580 294.000,210.800 294.000 C 211.020 294.000,211.200 293.460,211.200 292.800 C 211.200 292.140,211.335 291.599,211.500 291.597 C 211.906 291.593,212.800 289.614,212.800 288.720 C 212.800 288.324,212.980 288.000,213.200 288.000 C 213.420 288.000,213.600 287.640,213.600 287.200 C 213.600 286.760,213.780 286.400,214.000 286.400 C 214.220 286.400,214.400 285.860,214.400 285.200 C 214.400 284.540,214.580 284.000,214.800 284.000 C 215.020 284.000,215.200 283.640,215.200 283.200 C 215.200 282.760,215.380 282.400,215.600 282.400 C 215.820 282.400,216.000 281.860,216.000 281.200 C 216.000 280.540,216.180 280.000,216.400 280.000 C 216.620 280.000,216.800 279.640,216.800 279.200 C 216.800 278.760,216.980 278.400,217.200 278.400 C 217.420 278.400,217.600 277.860,217.600 277.200 C 217.600 276.540,217.780 276.000,218.000 276.000 C 218.220 276.000,218.400 275.640,218.400 275.200 C 218.400 274.760,218.580 274.400,218.800 274.400 C 219.020 274.400,219.200 273.950,219.200 273.400 C 219.200 272.850,219.380 272.400,219.600 272.400 C 219.820 272.400,220.000 272.051,220.000 271.624 C 220.000 271.197,220.180 270.736,220.400 270.600 C 220.620 270.464,220.800 269.913,220.800 269.376 C 220.800 268.839,220.980 268.400,221.200 268.400 C 221.420 268.400,221.600 268.051,221.600 267.624 C 221.600 267.197,221.780 266.736,222.000 266.600 C 222.220 266.464,222.400 265.913,222.400 265.376 C 222.400 264.839,222.541 264.400,222.713 264.400 C 222.885 264.400,223.277 263.549,223.584 262.509 C 223.891 261.468,224.379 260.163,224.669 259.609 C 224.958 259.054,225.196 258.195,225.198 257.700 C 225.199 257.205,225.380 256.800,225.600 256.800 C 225.820 256.800,226.000 256.440,226.000 256.000 C 226.000 255.560,226.180 255.200,226.400 255.200 C 226.620 255.200,226.800 254.660,226.800 254.000 C 226.800 253.340,226.980 252.800,227.200 252.800 C 227.420 252.800,227.600 252.440,227.600 252.000 C 227.600 251.560,227.780 251.200,228.000 251.200 C 228.220 251.200,228.400 250.660,228.400 250.000 C 228.400 249.340,228.580 248.800,228.800 248.800 C 229.020 248.800,229.200 248.440,229.200 248.000 C 229.200 247.560,229.380 247.200,229.600 247.200 C 229.820 247.200,230.000 246.660,230.000 246.000 C 230.000 245.340,230.180 244.800,230.400 244.800 C 230.620 244.800,230.800 244.440,230.800 244.000 C 230.800 243.560,230.980 243.200,231.200 243.200 C 231.420 243.200,231.600 242.845,231.600 242.412 C 231.600 241.979,231.960 240.983,232.400 240.200 C 232.840 239.417,233.200 238.421,233.200 237.988 C 233.200 237.555,233.380 237.200,233.600 237.200 C 233.820 237.200,234.000 236.851,234.000 236.424 C 234.000 235.997,234.180 235.536,234.400 235.400 C 234.620 235.264,234.800 234.713,234.800 234.176 C 234.800 233.639,234.980 233.200,235.200 233.200 C 235.420 233.200,235.600 232.840,235.600 232.400 C 235.600 231.960,235.780 231.600,236.000 231.600 C 236.220 231.600,236.400 231.060,236.400 230.400 C 236.400 229.740,236.580 229.200,236.800 229.200 C 237.020 229.200,237.200 228.840,237.200 228.400 C 237.200 227.960,237.380 227.600,237.600 227.600 C 237.820 227.600,238.000 227.060,238.000 226.400 C 238.000 225.740,238.180 225.200,238.400 225.200 C 238.620 225.200,238.800 224.928,238.800 224.595 C 238.800 224.262,238.965 223.677,239.167 223.295 C 240.138 221.459,241.164 218.799,241.413 217.471 C 241.565 216.662,241.849 216.000,242.045 216.000 C 242.240 216.000,242.400 215.460,242.400 214.800 C 242.400 214.140,242.580 213.600,242.800 213.600 C 243.020 213.600,243.200 213.240,243.200 212.800 C 243.200 212.360,243.380 212.000,243.600 212.000 C 243.820 212.000,244.000 211.460,244.000 210.800 C 244.000 210.140,244.180 209.600,244.400 209.600 C 244.620 209.600,244.800 209.240,244.800 208.800 C 244.800 208.360,244.980 208.000,245.200 208.000 C 245.420 208.000,245.600 207.550,245.600 207.000 C 245.600 206.450,245.780 206.000,246.000 206.000 C 246.220 206.000,246.400 205.651,246.400 205.224 C 246.400 204.797,246.580 204.336,246.800 204.200 C 247.020 204.064,247.200 203.513,247.200 202.976 C 247.200 202.439,247.380 202.000,247.600 202.000 C 247.820 202.000,248.000 201.640,248.000 201.200 C 248.000 200.760,248.180 200.400,248.400 200.400 C 248.620 200.400,248.800 199.860,248.800 199.200 C 248.800 198.540,248.980 198.000,249.200 198.000 C 249.420 198.000,249.600 197.640,249.600 197.200 C 249.600 196.760,249.780 196.400,250.000 196.400 C 250.220 196.400,250.400 195.860,250.400 195.200 C 250.400 194.540,250.580 194.000,250.800 194.000 C 251.020 194.000,251.200 193.640,251.200 193.200 C 251.200 192.760,251.380 192.400,251.600 192.400 C 251.820 192.400,252.000 192.045,252.000 191.612 C 252.000 191.179,252.360 190.183,252.800 189.400 C 253.240 188.617,253.600 187.621,253.600 187.188 C 253.600 186.755,253.780 186.400,254.000 186.400 C 254.220 186.400,254.400 186.051,254.400 185.624 C 254.400 185.197,254.580 184.736,254.800 184.600 C 255.020 184.464,255.200 183.913,255.200 183.376 C 255.200 182.839,255.380 182.400,255.600 182.400 C 255.820 182.400,256.000 182.051,256.000 181.624 C 256.000 181.197,256.180 180.736,256.400 180.600 C 256.620 180.464,256.800 179.913,256.800 179.376 C 256.800 178.839,256.964 178.400,257.165 178.400 C 257.366 178.400,257.651 177.681,257.800 176.802 C 257.948 175.923,258.234 175.103,258.435 174.978 C 258.636 174.854,258.800 174.403,258.800 173.976 C 258.800 173.549,258.980 173.200,259.200 173.200 C 259.420 173.200,259.600 172.750,259.600 172.200 C 259.600 171.650,259.780 171.200,260.000 171.200 C 260.220 171.200,260.400 170.750,260.400 170.200 C 260.400 169.650,260.580 169.200,260.800 169.200 C 261.020 169.200,261.200 168.851,261.200 168.424 C 261.200 167.997,261.380 167.536,261.600 167.400 C 261.820 167.264,262.000 166.713,262.000 166.176 C 262.000 165.639,262.180 165.200,262.400 165.200 C 262.620 165.200,262.800 164.840,262.800 164.400 C 262.800 163.960,262.980 163.600,263.200 163.600 C 263.420 163.600,263.600 163.060,263.600 162.400 C 263.600 161.740,263.780 161.200,264.000 161.200 C 264.220 161.200,264.400 160.840,264.400 160.400 C 264.400 159.960,264.580 159.600,264.800 159.600 C 265.020 159.600,265.200 159.161,265.200 158.624 C 265.200 158.087,265.380 157.536,265.600 157.400 C 265.820 157.264,266.000 156.803,266.000 156.376 C 266.000 155.949,266.180 155.600,266.400 155.600 C 266.620 155.600,266.800 155.150,266.800 154.600 C 266.800 154.050,266.980 153.600,267.200 153.600 C 267.420 153.600,267.600 153.251,267.600 152.824 C 267.600 152.397,267.780 151.936,268.000 151.800 C 268.220 151.664,268.400 151.113,268.400 150.576 C 268.400 150.039,268.580 149.600,268.800 149.600 C 269.020 149.600,269.200 149.251,269.200 148.824 C 269.200 148.397,269.380 147.936,269.600 147.800 C 269.820 147.664,270.000 147.113,270.000 146.576 C 270.000 146.039,270.180 145.600,270.400 145.600 C 270.620 145.600,270.800 145.240,270.800 144.800 C 270.800 144.360,270.980 144.000,271.200 144.000 C 271.420 144.000,271.600 143.460,271.600 142.800 C 271.600 142.140,271.780 141.600,272.000 141.600 C 272.220 141.600,272.400 141.328,272.400 140.995 C 272.400 140.662,272.565 140.077,272.766 139.695 C 273.573 138.166,274.384 136.071,274.862 134.283 C 275.139 133.247,275.509 132.400,275.683 132.400 C 275.857 132.400,276.000 131.961,276.000 131.424 C 276.000 130.887,276.180 130.336,276.400 130.200 C 276.620 130.064,276.800 129.603,276.800 129.176 C 276.800 128.749,276.980 128.400,277.200 128.400 C 277.420 128.400,277.600 128.040,277.600 127.600 C 277.600 127.160,277.780 126.800,278.000 126.800 C 278.220 126.800,278.400 126.260,278.400 125.600 C 278.400 124.940,278.535 124.399,278.700 124.397 C 279.106 124.393,280.000 122.414,280.000 121.520 C 280.000 121.124,280.180 120.800,280.400 120.800 C 280.620 120.800,280.800 120.440,280.800 120.000 C 280.800 119.560,280.980 119.200,281.200 119.200 C 281.420 119.200,281.600 118.761,281.600 118.224 C 281.600 117.687,281.780 117.136,282.000 117.000 C 282.220 116.864,282.400 116.403,282.400 115.976 C 282.400 115.549,282.580 115.200,282.800 115.200 C 283.020 115.200,283.200 114.851,283.200 114.424 C 283.200 113.997,283.380 113.536,283.600 113.400 C 283.820 113.264,284.000 112.713,284.000 112.176 C 284.000 111.639,284.180 111.200,284.400 111.200 C 284.620 111.200,284.800 110.840,284.800 110.400 C 284.800 109.960,284.980 109.600,285.200 109.600 C 285.420 109.600,285.600 109.257,285.600 108.838 C 285.600 108.179,286.086 107.011,287.650 103.905 C 287.843 103.523,288.000 102.938,288.000 102.605 C 288.000 102.272,288.141 102.000,288.313 102.000 C 288.485 102.000,288.870 101.171,289.169 100.158 C 289.468 99.145,290.032 97.657,290.421 96.851 C 290.810 96.045,291.255 94.714,291.409 93.893 C 291.563 93.072,291.849 92.400,292.045 92.400 C 292.240 92.400,292.400 92.040,292.400 91.600 C 292.400 91.160,292.580 90.800,292.800 90.800 C 293.020 90.800,293.200 90.350,293.200 89.800 C 293.200 89.250,293.380 88.800,293.600 88.800 C 293.820 88.800,294.000 88.451,294.000 88.024 C 294.000 87.597,294.180 87.136,294.400 87.000 C 294.620 86.864,294.800 86.313,294.800 85.776 C 294.800 85.239,294.980 84.800,295.200 84.800 C 295.420 84.800,295.600 84.440,295.600 84.000 C 295.600 83.560,295.780 83.200,296.000 83.200 C 296.220 83.200,296.400 82.660,296.400 82.000 C 296.400 81.340,296.580 80.800,296.800 80.800 C 297.020 80.800,297.200 80.440,297.200 80.000 C 297.200 79.560,297.380 79.200,297.600 79.200 C 297.820 79.200,298.000 78.851,298.000 78.424 C 298.000 77.997,298.180 77.536,298.400 77.400 C 298.620 77.264,298.800 76.713,298.800 76.176 C 298.800 75.639,298.980 75.200,299.200 75.200 C 299.420 75.200,299.600 74.840,299.600 74.400 C 299.600 73.960,299.780 73.600,300.000 73.600 C 300.220 73.600,300.400 73.150,300.400 72.600 C 300.400 72.050,300.580 71.600,300.800 71.600 C 301.020 71.600,301.200 71.251,301.200 70.824 C 301.200 70.397,301.380 69.936,301.600 69.800 C 301.820 69.664,302.000 69.113,302.000 68.576 C 302.000 68.039,302.180 67.600,302.400 67.600 C 302.620 67.600,302.800 66.880,302.800 66.000 L 302.800 64.400 253.033 64.400 C 200.496 64.400,202.000 64.357,202.000 65.843 C 202.000 66.369,201.820 66.800,201.600 66.800 C 201.380 66.800,201.200 67.340,201.200 68.000 C 201.200 68.660,201.020 69.200,200.800 69.200 C 200.580 69.200,200.400 69.639,200.400 70.176 C 200.400 70.713,200.220 71.264,200.000 71.400 C 199.780 71.536,199.600 71.997,199.600 72.424 C 199.600 72.851,199.420 73.200,199.200 73.200 C 198.980 73.200,198.800 73.740,198.800 74.400 C 198.800 75.060,198.620 75.600,198.400 75.600 C 198.180 75.600,198.000 76.050,198.000 76.600 C 198.000 77.150,197.820 77.600,197.600 77.600 C 197.380 77.600,197.200 77.962,197.200 78.405 C 197.200 79.183,197.058 79.569,196.062 81.495 C 195.808 81.987,195.600 82.752,195.600 83.195 C 195.600 83.638,195.420 84.000,195.200 84.000 C 194.980 84.000,194.800 84.540,194.800 85.200 C 194.800 85.860,194.620 86.400,194.400 86.400 C 194.180 86.400,194.000 86.940,194.000 87.600 C 194.000 88.260,193.820 88.800,193.600 88.800 C 193.380 88.800,193.200 89.340,193.200 90.000 C 193.200 90.660,193.050 91.200,192.867 91.200 C 192.561 91.200,191.858 93.439,191.328 96.100 C 191.208 96.705,190.950 97.200,190.755 97.200 C 190.560 97.200,190.400 97.740,190.400 98.400 C 190.400 99.060,190.220 99.600,190.000 99.600 C 189.780 99.600,189.600 100.140,189.600 100.800 C 189.600 101.460,189.420 102.000,189.200 102.000 C 188.980 102.000,188.800 102.540,188.800 103.200 C 188.800 103.860,188.620 104.400,188.400 104.400 C 188.180 104.400,188.000 104.940,188.000 105.600 C 188.000 106.260,187.820 106.800,187.600 106.800 C 187.380 106.800,187.200 107.340,187.200 108.000 C 187.200 108.660,187.020 109.200,186.800 109.200 C 186.580 109.200,186.400 109.650,186.400 110.200 C 186.400 110.750,186.220 111.200,186.000 111.200 C 185.780 111.200,185.600 111.740,185.600 112.400 C 185.600 113.060,185.420 113.600,185.200 113.600 C 184.980 113.600,184.800 114.140,184.800 114.800 C 184.800 115.460,184.620 116.000,184.400 116.000 C 184.180 116.000,184.000 116.540,184.000 117.200 C 184.000 117.860,183.820 118.400,183.600 118.400 C 183.380 118.400,183.200 118.940,183.200 119.600 C 183.200 120.260,183.020 120.800,182.800 120.800 C 182.580 120.800,182.400 121.340,182.400 122.000 C 182.400 122.660,182.220 123.200,182.000 123.200 C 181.780 123.200,181.600 123.740,181.600 124.400 C 181.600 125.060,181.420 125.600,181.200 125.600 C 180.980 125.600,180.800 126.039,180.800 126.576 C 180.800 127.113,180.620 127.664,180.400 127.800 C 180.180 127.936,180.000 128.476,180.000 129.000 C 180.000 129.524,179.820 130.064,179.600 130.200 C 179.380 130.336,179.200 130.887,179.200 131.424 C 179.200 131.961,179.020 132.400,178.800 132.400 C 178.580 132.400,178.400 132.940,178.400 133.600 C 178.400 134.260,178.220 134.800,178.000 134.800 C 177.780 134.800,177.600 135.340,177.600 136.000 C 177.600 136.660,177.420 137.200,177.200 137.200 C 176.980 137.200,176.800 137.652,176.800 138.205 C 176.800 138.758,176.638 139.523,176.440 139.905 C 176.242 140.287,175.767 141.680,175.384 143.000 C 174.656 145.511,174.146 146.929,173.553 148.095 C 173.359 148.477,173.200 149.152,173.200 149.595 C 173.200 150.038,173.020 150.400,172.800 150.400 C 172.580 150.400,172.400 150.940,172.400 151.600 C 172.400 152.260,172.220 152.800,172.000 152.800 C 171.780 152.800,171.600 153.340,171.600 154.000 C 171.600 154.660,171.420 155.200,171.200 155.200 C 170.980 155.200,170.800 155.740,170.800 156.400 C 170.800 157.060,170.620 157.600,170.400 157.600 C 170.180 157.600,170.000 158.050,170.000 158.600 C 170.000 159.150,169.820 159.600,169.600 159.600 C 169.380 159.600,169.200 160.050,169.200 160.600 C 169.200 161.150,169.020 161.600,168.800 161.600 C 168.580 161.600,168.400 162.050,168.400 162.600 C 168.400 163.150,168.220 163.600,168.000 163.600 C 167.780 163.600,167.600 164.140,167.600 164.800 C 167.600 165.460,167.420 166.000,167.200 166.000 C 166.980 166.000,166.800 166.362,166.800 166.805 C 166.800 167.248,166.620 167.968,166.400 168.405 C 166.180 168.842,165.820 169.558,165.600 169.995 C 165.380 170.432,165.200 171.152,165.200 171.595 C 165.200 172.038,165.020 172.400,164.800 172.400 C 164.580 172.400,164.400 172.839,164.400 173.376 C 164.400 173.913,164.220 174.464,164.000 174.600 C 163.780 174.736,163.600 175.197,163.600 175.624 C 163.600 176.051,163.420 176.400,163.200 176.400 C 162.980 176.400,162.800 176.850,162.800 177.400 C 162.800 177.950,162.620 178.400,162.400 178.400 C 162.180 178.400,162.000 178.749,162.000 179.176 C 162.000 179.603,161.820 180.064,161.600 180.200 C 161.380 180.336,161.200 180.887,161.200 181.424 C 161.200 181.961,161.020 182.400,160.800 182.400 C 160.580 182.400,160.400 182.749,160.400 183.176 C 160.400 183.603,160.220 184.064,160.000 184.200 C 159.780 184.336,159.600 184.776,159.600 185.178 C 159.600 185.580,159.331 186.424,159.002 187.054 C 158.674 187.684,158.404 188.594,158.402 189.076 C 158.401 189.558,158.220 190.064,158.000 190.200 C 157.780 190.336,157.600 190.797,157.600 191.224 C 157.600 191.651,157.420 192.000,157.200 192.000 C 156.980 192.000,156.800 192.270,156.800 192.600 C 156.800 192.930,156.620 193.200,156.400 193.200 C 156.180 193.200,156.000 193.472,156.000 193.805 C 156.000 194.393,155.833 194.818,154.862 196.695 C 154.608 197.187,154.400 197.862,154.400 198.195 C 154.400 198.528,154.220 198.800,154.000 198.800 C 153.780 198.800,153.600 199.160,153.600 199.600 C 153.600 200.040,153.420 200.400,153.200 200.400 C 152.980 200.400,152.800 200.760,152.800 201.200 C 152.800 201.640,152.620 202.000,152.400 202.000 C 152.180 202.000,152.000 202.330,152.000 202.733 C 152.000 203.137,151.882 203.585,151.737 203.730 C 151.282 204.185,150.400 203.144,150.400 202.151 C 150.400 201.628,150.220 201.200,150.000 201.200 C 149.780 201.200,149.600 200.660,149.600 200.000 C 149.600 199.340,149.420 198.800,149.200 198.800 C 148.980 198.800,148.800 198.260,148.800 197.600 C 148.800 196.940,148.620 196.400,148.400 196.400 C 148.180 196.400,148.000 195.961,148.000 195.424 C 148.000 194.887,147.820 194.336,147.600 194.200 C 147.380 194.064,147.200 193.513,147.200 192.976 C 147.200 192.439,147.020 192.000,146.800 192.000 C 146.580 192.000,146.400 191.460,146.400 190.800 C 146.400 190.140,146.220 189.600,146.000 189.600 C 145.780 189.600,145.600 189.161,145.600 188.624 C 145.600 188.087,145.420 187.536,145.200 187.400 C 144.980 187.264,144.800 186.803,144.800 186.376 C 144.800 185.949,144.620 185.600,144.400 185.600 C 144.180 185.600,144.000 185.060,144.000 184.400 C 144.000 183.740,143.820 183.200,143.600 183.200 C 143.380 183.200,143.200 182.761,143.200 182.224 C 143.200 181.687,143.020 181.136,142.800 181.000 C 142.580 180.864,142.400 180.403,142.400 179.976 C 142.400 179.549,142.220 179.200,142.000 179.200 C 141.780 179.200,141.601 178.795,141.602 178.300 C 141.604 177.230,140.329 173.457,139.900 173.267 C 139.735 173.193,139.600 172.608,139.600 171.967 C 139.600 171.325,139.420 170.800,139.200 170.800 C 138.980 170.800,138.800 170.361,138.800 169.824 C 138.800 169.287,138.620 168.736,138.400 168.600 C 138.180 168.464,138.000 168.003,138.000 167.576 C 138.000 167.149,137.820 166.800,137.600 166.800 C 137.380 166.800,137.200 166.260,137.200 165.600 C 137.200 164.940,137.020 164.400,136.800 164.400 C 136.580 164.400,136.400 163.961,136.400 163.424 C 136.400 162.887,136.220 162.336,136.000 162.200 C 135.780 162.064,135.600 161.603,135.600 161.176 C 135.600 160.749,135.420 160.400,135.200 160.400 C 134.980 160.400,134.800 159.950,134.800 159.400 C 134.800 158.850,134.620 158.400,134.400 158.400 C 134.180 158.400,134.000 157.860,134.000 157.200 C 134.000 156.540,133.820 156.000,133.600 156.000 C 133.380 156.000,133.200 155.651,133.200 155.224 C 133.200 154.797,133.020 154.336,132.800 154.200 C 132.580 154.064,132.400 153.513,132.400 152.976 C 132.400 152.439,132.220 152.000,132.000 152.000 C 131.780 152.000,131.600 151.460,131.600 150.800 C 131.600 150.140,131.420 149.600,131.200 149.600 C 130.980 149.600,130.800 149.251,130.800 148.824 C 130.800 148.397,130.620 147.936,130.400 147.800 C 130.180 147.664,130.000 147.113,130.000 146.576 C 130.000 146.039,129.820 145.600,129.600 145.600 C 129.380 145.600,129.200 145.150,129.200 144.600 C 129.200 144.050,129.020 143.600,128.800 143.600 C 128.580 143.600,128.400 143.251,128.400 142.824 C 128.400 142.397,128.220 141.936,128.000 141.800 C 127.780 141.664,127.600 141.113,127.600 140.576 C 127.600 140.039,127.420 139.600,127.200 139.600 C 126.980 139.600,126.800 139.060,126.800 138.400 C 126.800 137.740,126.620 137.200,126.400 137.200 C 126.180 137.200,126.000 136.660,126.000 136.000 C 126.000 135.340,125.820 134.800,125.600 134.800 C 125.380 134.800,125.200 134.534,125.200 134.208 C 125.200 133.548,123.363 127.736,122.858 126.800 C 122.680 126.470,122.285 125.345,121.980 124.300 C 121.675 123.255,121.285 122.400,121.113 122.400 C 120.941 122.400,120.800 121.860,120.800 121.200 C 120.800 120.540,120.620 120.000,120.400 120.000 C 120.180 120.000,120.000 119.460,120.000 118.800 C 120.000 118.140,119.820 117.600,119.600 117.600 C 119.380 117.600,119.200 117.060,119.200 116.400 C 119.200 115.740,119.020 115.200,118.800 115.200 C 118.580 115.200,118.400 114.660,118.400 114.000 C 118.400 113.340,118.220 112.800,118.000 112.800 C 117.780 112.800,117.600 112.271,117.600 111.624 C 117.600 110.977,117.420 110.336,117.200 110.200 C 116.980 110.064,116.800 109.524,116.800 109.000 C 116.800 108.476,116.620 107.936,116.400 107.800 C 116.180 107.664,116.000 107.023,116.000 106.376 C 116.000 105.729,115.820 105.200,115.600 105.200 C 115.380 105.200,115.200 104.660,115.200 104.000 C 115.200 103.340,115.020 102.800,114.800 102.800 C 114.580 102.800,114.400 102.260,114.400 101.600 C 114.400 100.940,114.220 100.400,114.000 100.400 C 113.780 100.400,113.600 99.871,113.600 99.224 C 113.600 98.577,113.420 97.936,113.200 97.800 C 112.980 97.664,112.800 96.933,112.800 96.176 C 112.800 95.419,112.620 94.800,112.400 94.800 C 112.180 94.800,112.000 94.361,112.000 93.824 C 112.000 93.287,111.820 92.736,111.600 92.600 C 111.380 92.464,111.200 91.733,111.200 90.976 C 111.200 90.219,111.020 89.600,110.800 89.600 C 110.580 89.600,110.400 89.060,110.400 88.400 C 110.400 87.740,110.220 87.200,110.000 87.200 C 109.780 87.200,109.600 86.480,109.600 85.600 C 109.600 84.720,109.420 84.000,109.200 84.000 C 108.980 84.000,108.800 83.291,108.800 82.424 C 108.800 81.557,108.641 80.749,108.447 80.629 C 108.253 80.509,107.969 79.241,107.816 77.810 C 107.663 76.379,107.371 75.106,107.169 74.981 C 106.966 74.855,106.800 74.043,106.800 73.176 C 106.800 72.309,106.620 71.600,106.400 71.600 C 106.180 71.600,106.000 70.891,106.000 70.024 C 106.000 69.157,105.820 68.336,105.600 68.200 C 105.380 68.064,105.200 67.438,105.200 66.809 C 105.200 64.178,110.066 64.400,52.302 64.400 L -0.110 64.400 0.164 67.100 M354.400 68.000 C 354.400 68.222,353.333 68.400,352.000 68.400 C 350.667 68.400,349.600 68.578,349.600 68.800 C 349.600 69.020,348.880 69.200,348.000 69.200 C 347.120 69.200,346.400 69.380,346.400 69.600 C 346.400 69.820,345.961 70.000,345.424 70.000 C 344.887 70.000,344.336 70.180,344.200 70.400 C 344.064 70.620,343.637 70.800,343.252 70.800 C 342.866 70.800,342.164 71.160,341.692 71.600 C 341.220 72.040,340.556 72.400,340.217 72.400 C 339.878 72.400,339.600 72.580,339.600 72.800 C 339.600 73.020,339.240 73.200,338.800 73.200 C 338.360 73.200,338.000 73.380,338.000 73.600 C 338.000 73.820,337.640 74.000,337.200 74.000 C 336.760 74.000,336.400 74.136,336.400 74.302 C 336.400 74.469,335.901 74.826,335.290 75.096 C 334.680 75.366,333.550 76.175,332.779 76.894 C 332.009 77.612,330.708 78.704,329.889 79.320 C 329.070 79.937,328.400 80.620,328.400 80.839 C 328.400 81.057,327.995 81.652,327.500 82.159 C 325.697 84.009,324.800 85.219,324.800 85.803 C 324.800 86.131,324.620 86.400,324.400 86.400 C 324.180 86.400,324.000 86.720,324.000 87.112 C 324.000 87.503,323.640 88.083,323.200 88.400 C 322.760 88.717,322.400 89.297,322.400 89.688 C 322.400 90.080,322.220 90.400,322.000 90.400 C 321.780 90.400,321.600 90.760,321.600 91.200 C 321.600 91.640,321.420 92.000,321.200 92.000 C 320.980 92.000,320.800 92.360,320.800 92.800 C 320.800 93.240,320.620 93.600,320.400 93.600 C 320.180 93.600,320.000 94.050,320.000 94.600 C 320.000 95.150,319.820 95.600,319.600 95.600 C 319.380 95.600,319.200 96.230,319.200 97.000 C 319.200 97.770,319.020 98.400,318.800 98.400 C 318.580 98.400,318.400 99.210,318.400 100.200 C 318.400 101.190,318.220 102.000,318.000 102.000 C 317.748 102.000,317.600 104.733,317.600 109.400 C 317.600 114.067,317.748 116.800,318.000 116.800 C 318.220 116.800,318.400 117.599,318.400 118.576 C 318.400 119.553,318.580 120.464,318.800 120.600 C 319.020 120.736,319.200 121.377,319.200 122.024 C 319.200 122.671,319.380 123.200,319.600 123.200 C 319.820 123.200,320.000 123.650,320.000 124.200 C 320.000 124.750,320.180 125.200,320.400 125.200 C 320.620 125.200,320.800 125.560,320.800 126.000 C 320.800 126.440,320.980 126.800,321.200 126.800 C 321.420 126.800,321.600 127.160,321.600 127.600 C 321.600 128.040,321.780 128.400,322.000 128.400 C 322.220 128.400,322.400 128.760,322.400 129.200 C 322.400 129.640,322.580 130.000,322.800 130.000 C 323.020 130.000,323.200 130.236,323.200 130.525 C 323.200 130.813,323.560 131.436,324.000 131.908 C 324.440 132.380,324.800 132.953,324.800 133.180 C 324.800 133.541,325.636 134.664,327.013 136.153 C 327.240 136.399,327.845 137.195,328.356 137.922 C 328.868 138.649,329.976 139.680,330.820 140.213 C 331.664 140.746,332.989 141.816,333.764 142.591 C 334.539 143.366,335.449 144.000,335.787 144.000 C 336.124 144.000,336.400 144.180,336.400 144.400 C 336.400 144.620,336.760 144.800,337.200 144.800 C 337.640 144.800,338.000 144.980,338.000 145.200 C 338.000 145.420,338.320 145.600,338.712 145.600 C 339.103 145.600,339.683 145.960,340.000 146.400 C 340.317 146.840,340.897 147.200,341.288 147.200 C 341.680 147.200,342.000 147.380,342.000 147.600 C 342.000 147.820,342.450 148.000,343.000 148.000 C 343.550 148.000,344.000 148.180,344.000 148.400 C 344.000 148.620,344.439 148.800,344.976 148.800 C 345.513 148.800,346.064 148.980,346.200 149.200 C 346.336 149.420,346.966 149.600,347.600 149.600 C 348.234 149.600,348.864 149.780,349.000 150.000 C 349.136 150.220,350.227 150.400,351.424 150.400 C 352.621 150.400,353.600 150.580,353.600 150.800 C 353.600 151.047,355.667 151.200,359.000 151.200 C 362.333 151.200,364.400 151.047,364.400 150.800 C 364.400 150.580,365.379 150.400,366.576 150.400 C 367.773 150.400,368.864 150.220,369.000 150.000 C 369.136 149.780,369.867 149.600,370.624 149.600 C 371.381 149.600,372.000 149.420,372.000 149.200 C 372.000 148.980,372.450 148.800,373.000 148.800 C 373.550 148.800,374.000 148.620,374.000 148.400 C 374.000 148.180,374.450 148.000,375.000 148.000 C 375.550 148.000,376.000 147.820,376.000 147.600 C 376.000 147.380,376.360 147.200,376.800 147.200 C 377.240 147.200,377.600 147.020,377.600 146.800 C 377.600 146.580,377.878 146.400,378.217 146.400 C 378.556 146.400,379.220 146.040,379.692 145.600 C 380.164 145.160,380.787 144.800,381.075 144.800 C 381.364 144.800,381.600 144.620,381.600 144.400 C 381.600 144.180,381.888 144.000,382.240 144.000 C 382.591 144.000,383.383 143.460,384.000 142.800 C 384.617 142.140,385.299 141.600,385.517 141.600 C 386.194 141.600,389.909 138.042,390.861 136.483 C 391.359 135.667,392.268 134.523,392.883 133.940 C 393.497 133.356,394.000 132.591,394.000 132.240 C 394.000 131.888,394.180 131.600,394.400 131.600 C 394.620 131.600,394.800 131.240,394.800 130.800 C 394.800 130.360,394.980 130.000,395.200 130.000 C 395.420 130.000,395.600 129.640,395.600 129.200 C 395.600 128.760,395.780 128.400,396.000 128.400 C 396.220 128.400,396.400 128.040,396.400 127.600 C 396.400 127.160,396.580 126.800,396.800 126.800 C 397.020 126.800,397.200 126.440,397.200 126.000 C 397.200 125.560,397.380 125.200,397.600 125.200 C 397.820 125.200,398.000 124.840,398.000 124.400 C 398.000 123.960,398.180 123.600,398.400 123.600 C 398.620 123.600,398.800 123.096,398.800 122.480 C 398.800 121.864,399.025 121.135,399.300 120.860 C 399.676 120.484,399.800 117.617,399.800 109.313 C 399.800 100.832,399.684 98.228,399.300 98.100 C 399.025 98.008,398.800 97.318,398.800 96.567 C 398.800 95.815,398.620 95.200,398.400 95.200 C 398.180 95.200,398.000 94.750,398.000 94.200 C 398.000 93.650,397.820 93.200,397.600 93.200 C 397.380 93.200,397.200 92.930,397.200 92.600 C 397.200 92.270,397.020 92.000,396.800 92.000 C 396.580 92.000,396.400 91.640,396.400 91.200 C 396.400 90.760,396.220 90.400,396.000 90.400 C 395.780 90.400,395.600 90.040,395.600 89.600 C 395.600 89.160,395.420 88.800,395.200 88.800 C 394.980 88.800,394.800 88.440,394.800 88.000 C 394.800 87.560,394.620 87.200,394.400 87.200 C 394.180 87.200,394.000 86.912,394.000 86.560 C 394.000 86.209,393.505 85.444,392.900 84.860 C 392.294 84.277,391.275 83.028,390.634 82.084 C 389.483 80.389,388.407 79.344,385.399 77.000 C 384.552 76.340,383.633 75.575,383.358 75.300 C 383.082 75.025,382.574 74.800,382.229 74.800 C 381.883 74.800,381.600 74.620,381.600 74.400 C 381.600 74.180,381.240 74.000,380.800 74.000 C 380.360 74.000,380.000 73.820,380.000 73.600 C 380.000 73.380,379.680 73.200,379.288 73.200 C 378.897 73.200,378.317 72.840,378.000 72.400 C 377.683 71.960,377.103 71.600,376.712 71.600 C 376.320 71.600,376.000 71.420,376.000 71.200 C 376.000 70.980,375.561 70.800,375.024 70.800 C 374.487 70.800,373.936 70.620,373.800 70.400 C 373.664 70.180,373.113 70.000,372.576 70.000 C 372.039 70.000,371.600 69.820,371.600 69.600 C 371.600 69.380,370.981 69.200,370.224 69.200 C 369.467 69.200,368.736 69.020,368.600 68.800 C 368.464 68.580,367.384 68.400,366.200 68.400 C 365.016 68.400,363.936 68.220,363.800 68.000 C 363.658 67.771,361.596 67.600,358.976 67.600 C 356.192 67.600,354.400 67.757,354.400 68.000 " stroke="none" fill-rule="evenodd"></path><path id="path1" d="" stroke="none" fill="#080404" fill-rule="evenodd"></path><path id="path2" d="" stroke="none" fill="#080404" fill-rule="evenodd"></path><path id="path3" d="" stroke="none" fill="#080404" fill-rule="evenodd"></path><path id="path4" d="" stroke="none" fill="#080404" fill-rule="evenodd"></path></g></svg>